<svg id="visual" viewBox="0 0 900 600" width="900" height="600" xmlns="http://www.w3.org/2000/svg" xmlns:xlink="http://www.w3.org/1999/xlink" version="1.1"><rect x="0" y="0" width="900" height="600" fill="#000000"></rect><g transform="translate(418.3060299841375 268.5758386969709)"><path d="M203.7 -244.1C260.4 -239.1 300.5 -174.9 287.3 -116.6C274.2 -58.4 208 -6.2 183.4 56.6C158.9 119.4 176.2 192.8 152.5 242.6C128.9 292.4 64.5 318.7 11.8 302.5C-40.9 286.4 -81.9 227.7 -119.6 182.5C-157.3 137.2 -191.9 105.4 -210.7 64.4C-229.5 23.5 -232.7 -26.6 -213.5 -64.3C-194.3 -102.1 -152.7 -127.5 -113.4 -138.1C-74.1 -148.8 -37 -144.7 18.2 -169.8C73.5 -194.9 146.9 -249.1 203.7 -244.1" fill="#252525"></path></g></svg>