<svg id="visual" viewBox="0 0 900 600" width="900" height="600" xmlns="http://www.w3.org/2000/svg" xmlns:xlink="http://www.w3.org/1999/xlink" version="1.1"><rect x="0" y="0" width="900" height="600" fill="#ffffff"></rect><defs><linearGradient id="grad1_0" x1="33.3%" y1="0%" x2="100%" y2="100%"><stop offset="20%" stop-color="#ffffff" stop-opacity="1"></stop><stop offset="80%" stop-color="#ffffff" stop-opacity="1"></stop></linearGradient></defs><defs><linearGradient id="grad2_0" x1="0%" y1="0%" x2="66.7%" y2="100%"><stop offset="20%" stop-color="#ffffff" stop-opacity="1"></stop><stop offset="80%" stop-color="#ffffff" stop-opacity="1"></stop></linearGradient></defs><g transform="translate(900, 0)"><path d="M0 324.5C-43.7 319.5 -87.3 314.4 -122.5 295.6C-157.6 276.9 -184.1 244.3 -215 215C-245.8 185.6 -280.8 159.5 -299.8 124.2C-318.8 88.9 -321.6 44.4 -324.5 0L0 0Z" fill="#dee7ee"></path></g><g transform="translate(0, 600)"><path d="M0 -324.5C41.3 -319.2 82.6 -313.9 124.2 -299.8C165.8 -285.7 207.6 -262.7 228.4 -228.4C249.2 -194 248.9 -148.3 261.5 -108.3C274 -68.3 299.2 -34.2 324.5 0L0 0Z" fill="#dee7ee"></path></g></svg>