<svg id="visual" viewBox="0 0 900 600" width="900" height="600" xmlns="http://www.w3.org/2000/svg" xmlns:xlink="http://www.w3.org/1999/xlink" version="1.1"><rect x="0" y="0" width="900" height="600" fill="#ffffff"></rect><path d="M0 442L21.5 434.8C43 427.7 86 413.3 128.8 408.8C171.7 404.3 214.3 409.7 257.2 412.3C300 415 343 415 385.8 416C428.7 417 471.3 419 514.2 413.3C557 407.7 600 394.3 642.8 383C685.7 371.7 728.3 362.3 771.2 368.8C814 375.3 857 397.7 878.5 408.8L900 420L900 601L878.5 601C857 601 814 601 771.2 601C728.3 601 685.7 601 642.8 601C600 601 557 601 514.2 601C471.3 601 428.7 601 385.8 601C343 601 300 601 257.2 601C214.3 601 171.7 601 128.8 601C86 601 43 601 21.5 601L0 601Z" fill="#dde9eb"></path><path d="M0 434L21.5 437.5C43 441 86 448 128.8 447.3C171.7 446.7 214.3 438.3 257.2 435.3C300 432.3 343 434.7 385.8 430.2C428.7 425.7 471.3 414.3 514.2 420.5C557 426.7 600 450.3 642.8 455.7C685.7 461 728.3 448 771.2 443.8C814 439.7 857 444.3 878.5 446.7L900 449L900 601L878.5 601C857 601 814 601 771.2 601C728.3 601 685.7 601 642.8 601C600 601 557 601 514.2 601C471.3 601 428.7 601 385.8 601C343 601 300 601 257.2 601C214.3 601 171.7 601 128.8 601C86 601 43 601 21.5 601L0 601Z" fill="#a4afac"></path><path d="M0 493L21.5 484C43 475 86 457 128.8 458.5C171.7 460 214.3 481 257.2 484.5C300 488 343 474 385.8 466.3C428.7 458.7 471.3 457.3 514.2 461.7C557 466 600 476 642.8 483.2C685.7 490.3 728.3 494.7 771.2 495.7C814 496.7 857 494.3 878.5 493.2L900 492L900 601L878.5 601C857 601 814 601 771.2 601C728.3 601 685.7 601 642.8 601C600 601 557 601 514.2 601C471.3 601 428.7 601 385.8 601C343 601 300 601 257.2 601C214.3 601 171.7 601 128.8 601C86 601 43 601 21.5 601L0 601Z" fill="#717771"></path><path d="M0 491L21.5 498.2C43 505.3 86 519.7 128.8 523.5C171.7 527.3 214.3 520.7 257.2 515.3C300 510 343 506 385.8 501.2C428.7 496.3 471.3 490.7 514.2 492.2C557 493.7 600 502.3 642.8 504.2C685.7 506 728.3 501 771.2 503C814 505 857 514 878.5 518.5L900 523L900 601L878.5 601C857 601 814 601 771.2 601C728.3 601 685.7 601 642.8 601C600 601 557 601 514.2 601C471.3 601 428.7 601 385.8 601C343 601 300 601 257.2 601C214.3 601 171.7 601 128.8 601C86 601 43 601 21.5 601L0 601Z" fill="#43433d"></path><path d="M0 538L21.5 537.3C43 536.7 86 535.3 128.8 540C171.7 544.7 214.3 555.3 257.2 558.5C300 561.7 343 557.3 385.8 557.3C428.7 557.3 471.3 561.7 514.2 564.8C557 568 600 570 642.8 567.7C685.7 565.3 728.3 558.7 771.2 557.5C814 556.3 857 560.7 878.5 562.8L900 565L900 601L878.5 601C857 601 814 601 771.2 601C728.3 601 685.7 601 642.8 601C600 601 557 601 514.2 601C471.3 601 428.7 601 385.8 601C343 601 300 601 257.2 601C214.3 601 171.7 601 128.8 601C86 601 43 601 21.5 601L0 601Z" fill="#19150f"></path></svg>