<svg id="visual" viewBox="0 0 900 600" width="900" height="600" xmlns="http://www.w3.org/2000/svg" xmlns:xlink="http://www.w3.org/1999/xlink" version="1.1"><path d="M0 115L82 115L82 79L164 79L164 109L245 109L245 109L327 109L327 85L409 85L409 67L491 67L491 67L573 67L573 55L655 55L655 61L736 61L736 79L818 79L818 85L900 85L900 127L900 0L900 0L818 0L818 0L736 0L736 0L655 0L655 0L573 0L573 0L491 0L491 0L409 0L409 0L327 0L327 0L245 0L245 0L164 0L164 0L82 0L82 0L0 0Z" fill="#e8e2d8"></path><path d="M0 229L82 229L82 205L164 205L164 241L245 241L245 163L327 163L327 139L409 139L409 157L491 157L491 205L573 205L573 109L655 109L655 151L736 151L736 247L818 247L818 193L900 193L900 229L900 125L900 83L818 83L818 77L736 77L736 59L655 59L655 53L573 53L573 65L491 65L491 65L409 65L409 83L327 83L327 107L245 107L245 107L164 107L164 77L82 77L82 113L0 113Z" fill="#eee9e1"></path><path d="M0 313L82 313L82 331L164 331L164 409L245 409L245 277L327 277L327 235L409 235L409 379L491 379L491 415L573 415L573 361L655 361L655 439L736 439L736 421L818 421L818 373L900 373L900 331L900 227L900 191L818 191L818 245L736 245L736 149L655 149L655 107L573 107L573 203L491 203L491 155L409 155L409 137L327 137L327 161L245 161L245 239L164 239L164 203L82 203L82 227L0 227Z" fill="#f4f0eb"></path><path d="M0 409L82 409L82 421L164 421L164 451L245 451L245 355L327 355L327 295L409 295L409 451L491 451L491 463L573 463L573 463L655 463L655 481L736 481L736 475L818 475L818 457L900 457L900 391L900 329L900 371L818 371L818 419L736 419L736 437L655 437L655 359L573 359L573 413L491 413L491 377L409 377L409 233L327 233L327 275L245 275L245 407L164 407L164 329L82 329L82 311L0 311Z" fill="#faf7f5"></path><path d="M0 601L82 601L82 601L164 601L164 601L245 601L245 601L327 601L327 601L409 601L409 601L491 601L491 601L573 601L573 601L655 601L655 601L736 601L736 601L818 601L818 601L900 601L900 601L900 389L900 455L818 455L818 473L736 473L736 479L655 479L655 461L573 461L573 461L491 461L491 449L409 449L409 293L327 293L327 353L245 353L245 449L164 449L164 419L82 419L82 407L0 407Z" fill="#ffffff"></path></svg>