<svg id="visual" viewBox="0 0 1024 750" width="1024" height="750" xmlns="http://www.w3.org/2000/svg" xmlns:xlink="http://www.w3.org/1999/xlink" version="1.1"><rect width="1024" height="750" fill="#0e124b"></rect><g><g transform="translate(909 372)"><path d="M136.4 -44.8C156 16 136.7 88.9 92.3 119.3C47.9 149.8 -21.8 137.9 -70.1 101.6C-118.4 65.3 -145.4 4.6 -130.1 -50.2C-114.9 -105 -57.4 -154.1 0.5 -154.2C58.4 -154.4 116.8 -105.6 136.4 -44.8Z" fill="#d35414"></path></g><g transform="translate(155 45)"><path d="M112.2 -37.2C125.7 5.2 103.4 58.4 63.8 87.1C24.1 115.8 -33 119.8 -70 93.6C-107.1 67.3 -124.1 10.7 -109.1 -33.7C-94.1 -78.1 -47 -110.3 1.1 -110.7C49.3 -111.1 98.6 -79.6 112.2 -37.2Z" fill="#d35414"></path></g><g transform="translate(448 569)"><path d="M137.7 -44.4C156 11.8 133.1 81.7 85.9 115.3C38.7 148.9 -32.8 146.3 -76.9 112.6C-121 79 -137.7 14.4 -120.3 -40.4C-102.9 -95.3 -51.4 -140.4 4.1 -141.8C59.7 -143.1 119.3 -100.6 137.7 -44.4Z" fill="#d35414"></path></g></g></svg>